<svg width="16" height="16" viewBox="0 0 16 16" fill="none" xmlns="http://www.w3.org/2000/svg">
<path d="M13.8933 3.07335C13.5528 2.73269 13.1485 2.46245 12.7036 2.27808C12.2586 2.0937 11.7817 1.9988 11.3 1.9988C10.8183 1.9988 10.3414 2.0937 9.89643 2.27808C9.45145 2.46245 9.04717 2.73269 8.70666 3.07335L8 3.78002L7.29333 3.07335C6.60554 2.38556 5.67269 1.99916 4.7 1.99916C3.72731 1.99916 2.79446 2.38556 2.10666 3.07335C1.41887 3.76115 1.03247 4.694 1.03247 5.66669C1.03247 6.63937 1.41887 7.57222 2.10666 8.26002L2.81333 8.96669L8 14.1534L13.1867 8.96669L13.8933 8.26002C14.234 7.91952 14.5042 7.51523 14.6886 7.07026C14.873 6.62528 14.9679 6.14834 14.9679 5.66669C14.9679 5.18503 14.873 4.70809 14.6886 4.26312C14.5042 3.81814 14.234 3.41386 13.8933 3.07335Z" fill="#E53935"/>
</svg>
