<svg width="24" height="24" viewBox="0 0 24 24" fill="none" xmlns="http://www.w3.org/2000/svg">
<path d="M20.9938 11.9844C20.9938 12.5469 20.525 12.9875 19.9938 12.9875H18.9938L19.0157 17.9937C19.0157 18.0781 19.0094 18.1625 19 18.2469V18.7531C19 19.4438 18.4407 20.0031 17.75 20.0031H17.25C17.2157 20.0031 17.1813 20.0031 17.1469 20C17.1032 20.0031 17.0594 20.0031 17.0157 20.0031L16 20H15.25C14.5594 20 14 19.4406 14 18.75V18V16C14 15.4469 13.5532 15 13 15H11C10.4469 15 10 15.4469 10 16V18V18.75C10 19.4406 9.44067 20 8.75005 20H8.00005H7.00317C6.9563 20 6.90942 19.9969 6.86255 19.9937C6.82505 19.9969 6.78755 20 6.75005 20H6.25005C5.55942 20 5.00005 19.4406 5.00005 18.75V15.25C5.00005 15.2219 5.00005 15.1906 5.00317 15.1625V12.9844H4.00317C3.44067 12.9844 3.00317 12.5469 3.00317 11.9812C3.00317 11.7 3.09692 11.45 3.31567 11.2312L11.325 4.25C11.5438 4.03125 11.7938 4 12.0125 4C12.2313 4 12.4813 4.0625 12.6688 4.21875L20.65 11.2344C20.9 11.4531 21.025 11.7031 20.9938 11.9844Z" fill="#424242"/>
</svg>
